# xmcd CD database file
#
# Track frame offsets:
#	150
#	29483
#	79813
#	113700
#	152055
#	188425
#	228480
#
# Disc length: 3438 seconds
#
# Revision: 0
# Processed by: cddbd v1.4PL0 Copyright (c) Steve Scherf et al.
# Submitted via: CDex 1.51
#
DISCID=4b0d6c07
DTITLE=Javon Jackson - Me and Mr. Jones
DYEAR=1992
DGENRE=Jazz
TTITLE0=Me and Mr. Jones
TTITLE1=The Masquerade is Over
TTITLE2=Theme for Penny
TTITLE3=Opus One-Point-Five
TTITLE4=A Certain Attitude
TTITLE5=A Free Man?
TTITLE6=Buzz-At
EXTD=YEAR: 1992
EXTT0=
EXTT1=
EXTT2=
EXTT3=
EXTT4=
EXTT5=
EXTT6=
PLAYORDER=
